<?xml version="1.0" encoding="UTF-8"?>
<svg version="1.1" xmlns="http://www.w3.org/2000/svg" width="1024" height="1024">
<path d="M0 0 C9.49527474 6.83795186 15.03402328 14.39336532 19.3125 25.25 C19.3125 26.57 19.3125 27.89 19.3125 29.25 C19.9725 29.25 20.6325 29.25 21.3125 29.25 C21.35375 28.321875 21.395 27.39375 21.4375 26.4375 C22.99942626 16.10796098 30.41938526 7.57113397 38.3125 1.25 C50.75508893 -6.40575854 64.26614962 -9.0507783 78.61328125 -6.0625 C91.25911491 -1.76971347 101.31875301 6.62912783 107.3125 18.5 C109.29206864 22.54751088 110.3125 24.71397364 110.3125 29.25 C110.9725 29.25 111.6325 29.25 112.3125 29.25 C112.35375 28.321875 112.395 27.39375 112.4375 26.4375 C113.99942626 16.10796098 121.41938526 7.57113397 129.3125 1.25 C141.75508893 -6.40575854 155.26614962 -9.0507783 169.61328125 -6.0625 C182.27871898 -1.76305862 192.34840288 6.61828058 198.25 18.5625 C199.77538336 21.77657655 201.18788983 24.8761695 202.3125 28.25 C202.89644531 26.90808594 202.89644531 26.90808594 203.4921875 25.5390625 C209.49374903 12.33012951 217.51449558 3.64525668 231.3125 -1.75 C241.79194195 -5.32955025 254.70609543 -5.47867998 264.9296875 -1.0078125 C277.91461416 5.84652583 285.93793409 14.61203901 291.3125 28.25 C291.3125 29.57 291.3125 30.89 291.3125 32.25 C291.9725 32.25 292.6325 32.25 293.3125 32.25 C293.35375 31.321875 293.395 30.39375 293.4375 29.4375 C294.99942626 19.10796098 302.41938526 10.57113397 310.3125 4.25 C322.75508893 -3.40575854 336.26614962 -6.0507783 350.61328125 -3.0625 C363.25911491 1.23028653 373.31875301 9.62912783 379.3125 21.5 C381.29206864 25.54751088 382.3125 27.71397364 382.3125 32.25 C382.9725 32.25 383.6325 32.25 384.3125 32.25 C384.35375 31.321875 384.395 30.39375 384.4375 29.4375 C385.99942626 19.10796098 393.41938526 10.57113397 401.3125 4.25 C413.75508893 -3.40575854 427.26614962 -6.0507783 441.61328125 -3.0625 C454.25911491 1.23028653 464.31875301 9.62912783 470.3125 21.5 C472.29206864 25.54751088 473.3125 27.71397364 473.3125 32.25 C473.9725 32.25 474.6325 32.25 475.3125 32.25 C475.35375 31.321875 475.395 30.39375 475.4375 29.4375 C476.99942626 19.10796098 484.41938526 10.57113397 492.3125 4.25 C504.75508893 -3.40575854 518.26614962 -6.0507783 532.61328125 -3.0625 C547.76601165 2.08128401 556.87454102 12.37658349 563.84375 26.25 C564.3284375 27.24 564.813125 28.23 565.3125 29.25 C565.53164063 28.56035156 565.75078125 27.87070312 565.9765625 27.16015625 C570.2615672 14.46191062 577.24819775 4.12764585 589.375 -2.125 C600.65138229 -7.54371793 614.32339974 -9.21606657 626.375 -5.125 C640.62584473 1.10702078 649.66147737 10.91053008 655.3125 25.25 C655.3125 26.57 655.3125 27.89 655.3125 29.25 C655.9725 29.25 656.6325 29.25 657.3125 29.25 C657.35375 28.321875 657.395 27.39375 657.4375 26.4375 C658.99942626 16.10796098 666.41938526 7.57113397 674.3125 1.25 C686.75508893 -6.40575854 700.26614962 -9.0507783 714.61328125 -6.0625 C727.24759581 -1.77362377 737.32749552 6.59961178 743.25 18.5 C748.3112817 29.06066978 749.54354381 42.04837202 745.6875 53.3125 C739.83662955 66.6917632 730.86077873 75.76076191 717.3125 81.25 C706.84520611 84.8415979 693.90797448 84.97390015 683.6953125 80.5078125 C670.71038584 73.65347417 662.68706591 64.88796099 657.3125 51.25 C657.3125 49.93 657.3125 48.61 657.3125 47.25 C656.6525 47.25 655.9925 47.25 655.3125 47.25 C655.27125 48.178125 655.23 49.10625 655.1875 50.0625 C653.62557374 60.39203902 646.20561474 68.92886603 638.3125 75.25 C625.86991107 82.90575854 612.35885038 85.5507783 598.01171875 82.5625 C582.85898835 77.41871599 573.75045898 67.12341651 566.78125 53.25 C566.2965625 52.26 565.811875 51.27 565.3125 50.25 C565.09335937 50.93964844 564.87421875 51.62929688 564.6484375 52.33984375 C560.3634328 65.03808938 553.37680225 75.37235415 541.25 81.625 C529.97361771 87.04371793 516.30160026 88.71606657 504.25 84.625 C489.99915527 78.39297922 480.96352263 68.58946992 475.3125 54.25 C475.3125 52.93 475.3125 51.61 475.3125 50.25 C474.6525 50.25 473.9925 50.25 473.3125 50.25 C473.27125 51.178125 473.23 52.10625 473.1875 53.0625 C471.62557374 63.39203902 464.20561474 71.92886603 456.3125 78.25 C443.86991107 85.90575854 430.35885038 88.5507783 416.01171875 85.5625 C403.36588509 81.26971347 393.30624699 72.87087217 387.3125 61 C385.33293136 56.95248912 384.3125 54.78602636 384.3125 50.25 C383.6525 50.25 382.9925 50.25 382.3125 50.25 C382.27125 51.178125 382.23 52.10625 382.1875 53.0625 C380.62557374 63.39203902 373.20561474 71.92886603 365.3125 78.25 C352.86991107 85.90575854 339.35885038 88.5507783 325.01171875 85.5625 C312.36588509 81.26971347 302.30624699 72.87087217 296.3125 61 C294.33293136 56.95248912 293.3125 54.78602636 293.3125 50.25 C292.6525 50.25 291.9925 50.25 291.3125 50.25 C291.27125 51.178125 291.23 52.10625 291.1875 53.0625 C289.62557374 63.39203902 282.20561474 71.92886603 274.3125 78.25 C261.86991107 85.90575854 248.35885038 88.5507783 234.01171875 85.5625 C221.34628102 81.26305862 211.27659712 72.88171942 205.375 60.9375 C203.84961664 57.72342345 202.43711017 54.6238305 201.3125 51.25 C200.72855469 52.59191406 200.72855469 52.59191406 200.1328125 53.9609375 C194.13125097 67.16987049 186.11050442 75.85474332 172.3125 81.25 C161.83305805 84.82955025 148.91890457 84.97867998 138.6953125 80.5078125 C125.71038584 73.65347417 117.68706591 64.88796099 112.3125 51.25 C112.3125 49.93 112.3125 48.61 112.3125 47.25 C111.6525 47.25 110.9925 47.25 110.3125 47.25 C110.27125 48.178125 110.23 49.10625 110.1875 50.0625 C108.62557374 60.39203902 101.20561474 68.92886603 93.3125 75.25 C80.86991107 82.90575854 67.35885038 85.5507783 53.01171875 82.5625 C40.36588509 78.26971347 30.30624699 69.87087217 24.3125 58 C22.33293136 53.95248912 21.3125 51.78602636 21.3125 47.25 C20.6525 47.25 19.9925 47.25 19.3125 47.25 C19.27125 48.178125 19.23 49.10625 19.1875 50.0625 C17.62557374 60.39203902 10.20561474 68.92886603 2.3125 75.25 C-10.13008893 82.90575854 -23.64114962 85.5507783 -37.98828125 82.5625 C-50.62259581 78.27362377 -60.70249552 69.90038822 -66.625 58 C-71.6862817 47.43933022 -72.91854381 34.45162798 -69.0625 23.1875 C-63.21162955 9.8082368 -54.23577873 0.73923809 -40.6875 -4.75 C-26.86116762 -9.49417045 -12.31239452 -7.63785829 0 0 Z " fill="#0C235B" transform="translate(115.6875,525.75)"/>
<path d="M0 0 C9.49527474 6.83795186 15.03402328 14.39336532 19.3125 25.25 C19.3125 26.57 19.3125 27.89 19.3125 29.25 C19.9725 29.25 20.6325 29.25 21.3125 29.25 C21.35375 28.321875 21.395 27.39375 21.4375 26.4375 C22.99942626 16.10796098 30.41938526 7.57113397 38.3125 1.25 C50.75508893 -6.40575854 64.26614962 -9.0507783 78.61328125 -6.0625 C91.24759581 -1.77362377 101.32749552 6.59961178 107.25 18.5 C112.3112817 29.06066978 113.54354381 42.04837202 109.6875 53.3125 C103.83662955 66.6917632 94.86077873 75.76076191 81.3125 81.25 C70.84520611 84.8415979 57.90797448 84.97390015 47.6953125 80.5078125 C34.71038584 73.65347417 26.68706591 64.88796099 21.3125 51.25 C21.3125 49.93 21.3125 48.61 21.3125 47.25 C20.6525 47.25 19.9925 47.25 19.3125 47.25 C19.27125 48.178125 19.23 49.10625 19.1875 50.0625 C17.62557374 60.39203902 10.20561474 68.92886603 2.3125 75.25 C-10.13008893 82.90575854 -23.64114962 85.5507783 -37.98828125 82.5625 C-53.14101165 77.41871599 -62.24954102 67.12341651 -69.21875 53.25 C-69.7034375 52.26 -70.188125 51.27 -70.6875 50.25 C-70.90664063 50.93964844 -71.12578125 51.62929688 -71.3515625 52.33984375 C-75.6365672 65.03808938 -82.62319775 75.37235415 -94.75 81.625 C-106.02638229 87.04371793 -119.69839974 88.71606657 -131.75 84.625 C-146.25051323 78.28379696 -154.61128599 68.5511182 -160.6875 54.25 C-163.72749106 43.82773219 -162.72743657 30.79770593 -157.6875 21.25 C-150.87050771 8.94714409 -141.64366974 1.66621805 -128.36328125 -2.890625 C-115.20895764 -5.96602478 -102.44934232 -4.10247337 -91 3 C-81.03827833 10.17882077 -75.99350152 18.41220966 -70.6875 29.25 C-70.46835937 28.56035156 -70.24921875 27.87070312 -70.0234375 27.16015625 C-65.7384328 14.46191062 -58.75180225 4.12764585 -46.625 -2.125 C-31.26928413 -9.50398829 -14.49139272 -8.98957582 0 0 Z " fill="#7076AF" transform="translate(751.6875,525.75)"/>
<path d="M0 0 C10.08957655 7.26593391 17.69130718 16.78447474 20.3125 29.25 C21.2804873 45.26146213 18.93883672 56.72819019 8.5703125 69.375 C1.11680682 77.53983609 -9.816163 82.9886009 -20.921875 83.5859375 C-36.25953224 83.89252219 -47.26866197 80.11951286 -58.8125 69.75 C-68.52530636 59.70629643 -71.18418072 47.30984706 -70.96484375 33.8125 C-70.46335617 21.65703997 -63.6073203 11.3560796 -55.02734375 3.10546875 C-39.0375452 -9.57425464 -17.10347758 -10.60995389 0 0 Z " fill="#7076AF" transform="translate(660.6875,528.75)"/>
<path d="M0 0 C10.08957655 7.26593391 17.69130718 16.78447474 20.3125 29.25 C21.2804873 45.26146213 18.93883672 56.72819019 8.5703125 69.375 C1.11680682 77.53983609 -9.816163 82.9886009 -20.921875 83.5859375 C-36.25953224 83.89252219 -47.26866197 80.11951286 -58.8125 69.75 C-68.52530636 59.70629643 -71.18418072 47.30984706 -70.96484375 33.8125 C-70.46335617 21.65703997 -63.6073203 11.3560796 -55.02734375 3.10546875 C-39.0375452 -9.57425464 -17.10347758 -10.60995389 0 0 Z " fill="#0C235B" transform="translate(569.6875,528.75)"/>
<path d="M0 0 C10.08957655 7.26593391 17.69130718 16.78447474 20.3125 29.25 C21.2804873 45.26146213 18.93883672 56.72819019 8.5703125 69.375 C1.11680682 77.53983609 -9.816163 82.9886009 -20.921875 83.5859375 C-36.25953224 83.89252219 -47.26866197 80.11951286 -58.8125 69.75 C-68.52530636 59.70629643 -71.18418072 47.30984706 -70.96484375 33.8125 C-70.46335617 21.65703997 -63.6073203 11.3560796 -55.02734375 3.10546875 C-39.0375452 -9.57425464 -17.10347758 -10.60995389 0 0 Z " fill="#7076AF" transform="translate(478.6875,528.75)"/>
<path d="M0 0 C10.08957655 7.26593391 17.69130718 16.78447474 20.3125 29.25 C21.2804873 45.26146213 18.93883672 56.72819019 8.5703125 69.375 C1.11680682 77.53983609 -9.816163 82.9886009 -20.921875 83.5859375 C-36.25953224 83.89252219 -47.26866197 80.11951286 -58.8125 69.75 C-68.52530636 59.70629643 -71.18418072 47.30984706 -70.96484375 33.8125 C-70.46335617 21.65703997 -63.6073203 11.3560796 -55.02734375 3.10546875 C-39.0375452 -9.57425464 -17.10347758 -10.60995389 0 0 Z " fill="#0C235B" transform="translate(751.6875,525.75)"/>
<path d="M0 0 C10.08957655 7.26593391 17.69130718 16.78447474 20.3125 29.25 C21.2804873 45.26146213 18.93883672 56.72819019 8.5703125 69.375 C1.11680682 77.53983609 -9.816163 82.9886009 -20.921875 83.5859375 C-36.25953224 83.89252219 -47.26866197 80.11951286 -58.8125 69.75 C-68.52530636 59.70629643 -71.18418072 47.30984706 -70.96484375 33.8125 C-70.46335617 21.65703997 -63.6073203 11.3560796 -55.02734375 3.10546875 C-39.0375452 -9.57425464 -17.10347758 -10.60995389 0 0 Z " fill="#7076AF" transform="translate(115.6875,525.75)"/>
<path d="M0 0 C10.08957655 7.26593391 17.69130718 16.78447474 20.3125 29.25 C21.2804873 45.26146213 18.93883672 56.72819019 8.5703125 69.375 C1.11680682 77.53983609 -9.816163 82.9886009 -20.921875 83.5859375 C-36.25953224 83.89252219 -47.26866197 80.11951286 -58.8125 69.75 C-68.52530636 59.70629643 -71.18418072 47.30984706 -70.96484375 33.8125 C-70.46335617 21.65703997 -63.6073203 11.3560796 -55.02734375 3.10546875 C-39.0375452 -9.57425464 -17.10347758 -10.60995389 0 0 Z " fill="#F59B99" transform="translate(967.6875,444.75)"/>
<path d="M0 0 C9.92906643 7.15034374 17.48350635 16.34269759 20.00390625 28.6171875 C21.28711476 43.72331304 19.68729891 55.90434965 10.046875 68.12109375 C2.05733847 76.79360679 -8.97545358 82.94592663 -20.921875 83.5859375 C-36.25953224 83.89252219 -47.26866197 80.11951286 -58.8125 69.75 C-68.52530636 59.70629643 -71.18418072 47.30984706 -70.96484375 33.8125 C-70.46335617 21.65703997 -63.6073203 11.3560796 -55.02734375 3.10546875 C-39.0375452 -9.57425464 -17.10347758 -10.60995389 0 0 Z " fill="#7076AF" transform="translate(297.6875,525.75)"/>
<path d="M0 0 C5.94 0 11.88 0 18 0 C18 0.99 18 1.98 18 3 C16.02 3.33 14.04 3.66 12 4 C12.33 8.62 12.66 13.24 13 18 C18.58735274 13.45435709 22.57415407 9.34110906 26 3 C24.68 3 23.36 3 22 3 C22 2.01 22 1.02 22 0 C27.28 0 32.56 0 38 0 C38 0.99 38 1.98 38 3 C36.96746094 3.36738281 35.93492188 3.73476563 34.87109375 4.11328125 C30.59000108 5.94803525 28.04135133 8.68951276 25.0625 12.1875 C24.56943359 12.74630859 24.07636719 13.30511719 23.56835938 13.88085938 C22.36799625 15.24437865 21.18240743 16.62088103 20 18 C21.96710318 20.69223141 23.97766217 23.34904182 26 26 C26.72316406 26.96035156 27.44632813 27.92070313 28.19140625 28.91015625 C28.95324219 29.88855469 29.71507813 30.86695313 30.5 31.875 C31.2115625 32.80054688 31.923125 33.72609375 32.65625 34.6796875 C35.31619597 37.31303401 37.40508231 38.10127058 41 39 C41 39.99 41 40.98 41 42 C36.40116608 42.92122905 32.57235948 43.15298675 28 42 C23.90434823 38.75168218 21.04303684 34.22294637 18.25756836 29.8527832 C16.64066875 27.47059505 14.79855603 25.24819504 13 23 C13 27.62 13 32.24 13 37 C14.65 37.66 16.3 38.32 18 39 C18 39.99 18 40.98 18 42 C12.06 42 6.12 42 0 42 C0 41.01 0 40.02 0 39 C1.98 38.505 1.98 38.505 4 38 C4 27.11 4 16.22 4 5 C2.68 4.34 1.36 3.68 0 3 C0 2.01 0 1.02 0 0 Z " fill="#F7FCFD" transform="translate(73,541)"/>
<path d="M0 0 C2.8203125 1.86328125 2.8203125 1.86328125 5 5 C5.5967242 8.62724927 5.47240961 12.1493399 5.3125 15.8125 C5.28994141 16.79154297 5.26738281 17.77058594 5.24414062 18.77929688 C5.18539727 21.18777455 5.10332129 23.59309078 5 26 C6.65 26.33 8.3 26.66 10 27 C10 27.99 10 28.98 10 30 C3.9453125 30.9765625 3.9453125 30.9765625 2 31 C1.34 30.34 0.68 29.68 0 29 C-1.91969728 29.29554728 -1.91969728 29.29554728 -4 30 C-8.55539212 30.95345416 -11.78586184 31.59467992 -16.0625 29.5 C-18 27 -18 27 -18.5625 23.5625 C-17.8784026 19.22988315 -17.33372315 17.86855248 -14 15 C-5.1503268 11 -5.1503268 11 -1 11 C-1.99 8.69 -2.98 6.38 -4 4 C-5.65 4 -7.3 4 -9 4 C-9.33 5.98 -9.66 7.96 -10 10 C-11.98 10 -13.96 10 -16 10 C-16.33 8.35 -16.66 6.7 -17 5 C-12.14007256 -0.25397561 -7.09795655 -1.75640846 0 0 Z " fill="#F0F6F8" transform="translate(731,553)"/>
<path d="M0 0 C3.125 2.4375 3.125 2.4375 5 5 C5.33 5.33 5.66 5.66 6 6 C6 8.97 6 11.94 6 15 C0.06 15 -5.88 15 -12 15 C-11.566875 16.44375 -11.13375 17.8875 -10.6875 19.375 C-10.44386719 20.18710937 -10.20023438 20.99921875 -9.94921875 21.8359375 C-9.08631815 24.33184629 -9.08631815 24.33184629 -6 26 C-0.94060332 25.86692505 -0.94060332 25.86692505 2.9375 22.9375 C3.4634375 21.9784375 3.4634375 21.9784375 4 21 C4.99 21.33 5.98 21.66 7 22 C6.04872818 25.42457856 5.07456145 26.93431491 2.375 29.3125 C-2.8727449 31.93637245 -6.73575 31.74023558 -12.25 29.9375 C-15.7696831 27.45772327 -17.7289639 25.07017177 -19 21 C-19.74756158 15.30937816 -19.8043081 10.63734149 -17.25 5.4375 C-11.9931079 -0.25746644 -7.66947401 -1.26120239 0 0 Z " fill="#F9F9F9" transform="translate(949,469)"/>
<path d="M0 0 C3.125 2.4375 3.125 2.4375 5 5 C5.33 5.33 5.66 5.66 6 6 C6 8.97 6 11.94 6 15 C0.06 15 -5.88 15 -12 15 C-11.566875 16.44375 -11.13375 17.8875 -10.6875 19.375 C-10.44386719 20.18710937 -10.20023437 20.99921875 -9.94921875 21.8359375 C-9.08631815 24.33184629 -9.08631815 24.33184629 -6 26 C-0.94060332 25.86692505 -0.94060332 25.86692505 2.9375 22.9375 C3.4634375 21.9784375 3.4634375 21.9784375 4 21 C4.99 21.33 5.98 21.66 7 22 C6.04872818 25.42457856 5.07456145 26.93431491 2.375 29.3125 C-1.58002164 31.29001082 -4.70238989 31.81306137 -9 31 C-12.81207749 29.64830718 -15.43606933 27.72765248 -17.9375 24.5 C-19.9021904 18.0280787 -20.26518575 11.57555671 -17.25 5.4375 C-11.9931079 -0.25746644 -7.66947401 -1.26120239 0 0 Z " fill="#EEF3F6" transform="translate(369,553)"/>
<path d="M0 0 C3.3 0 6.6 0 10 0 C10.33 0.99 10.66 1.98 11 3 C11.474375 2.505 11.94875 2.01 12.4375 1.5 C15.67013591 -0.39227468 18.10202466 -0.44254896 21.78125 -0.59375 C24 0 24 0 26.234375 1.85546875 C28.80201361 6.42836495 28.67368858 10.64760424 28.75 15.8125 C28.77964844 16.79154297 28.80929687 17.77058594 28.83984375 18.77929688 C28.91029202 21.18627953 28.96311025 23.5923079 29 26 C29.99 26.33 30.98 26.66 32 27 C32 27.99 32 28.98 32 30 C27.05 30 22.1 30 17 30 C17 29.01 17 28.02 17 27 C18.32 26.67 19.64 26.34 21 26 C21.05404449 23.24973583 21.09369306 20.50053797 21.125 17.75 C21.14175781 16.97269531 21.15851563 16.19539062 21.17578125 15.39453125 C21.25968301 9.91693064 21.25968301 9.91693064 19 5 C14.52116304 5.44703986 14.52116304 5.44703986 11 8 C10.85482256 10.9093558 10.81369204 13.719946 10.875 16.625 C10.88853516 17.82769531 10.88853516 17.82769531 10.90234375 19.0546875 C10.92593777 21.03658523 10.96180935 23.01832981 11 25 C12.32 25.66 13.64 26.32 15 27 C15 27.99 15 28.98 15 30 C10.05 30 5.1 30 0 30 C0 29.01 0 28.02 0 27 C0.99 26.67 1.98 26.34 3 26 C3 18.74 3 11.48 3 4 C1.68 3.67 0.36 3.34 -1 3 C-0.67 2.01 -0.34 1.02 0 0 Z " fill="#F6FBFD" transform="translate(257,553)"/>
<path d="M0 0 C1.99954746 -0.04254356 4.00041636 -0.04080783 6 0 C7 1 7 1 7.09765625 2.84765625 C7.04882812 5.92382812 7.04882812 5.92382812 7 9 C9.64 9 12.28 9 15 9 C15 10.32 15 11.64 15 13 C12.36 13 9.72 13 7 13 C7.33 19.93 7.66 26.86 8 34 C10.31 34.33 12.62 34.66 15 35 C14.6875 36.9375 14.6875 36.9375 14 39 C10.40735548 40.19754817 7.77282526 40.33094958 4 40 C1.32314718 37.95341461 0.13977382 36.78964695 -0.45410156 33.43457031 C-0.4331543 32.49194336 -0.41220703 31.54931641 -0.390625 30.578125 C-0.37773437 29.55332031 -0.36484375 28.52851562 -0.3515625 27.47265625 C-0.31804687 26.40917969 -0.28453125 25.34570312 -0.25 24.25 C-0.23195313 23.17105469 -0.21390625 22.09210937 -0.1953125 20.98046875 C-0.14821415 18.31941212 -0.082456 15.66015746 0 13 C-1.65 13 -3.3 13 -5 13 C-5 11.68 -5 10.36 -5 9 C-3.35 9 -1.7 9 0 9 C0 6.03 0 3.06 0 0 Z " fill="#EEF3F8" transform="translate(448,544)"/>
<path d="M0 0 C3.1875 2.125 3.1875 2.125 5 5 C4.8125 8.3125 4.8125 8.3125 4 11 C1.625 11.625 1.625 11.625 -1 12 C-3 10 -3 10 -3.125 6.875 C-3.08375 5.92625 -3.0425 4.9775 -3 4 C-5.37305578 3.58219121 -5.37305578 3.58219121 -8 4 C-11.11294847 7.11294847 -11.24432676 10.2900491 -11.375 14.5 C-11.23802323 18.73486511 -11.1262459 21.8737541 -8 25 C-5.2431282 26.34927662 -5.2431282 26.34927662 -2 26 C0.56532118 24.59370948 2.78000116 22.89816469 5 21 C5.33 22.32 5.66 23.64 6 25 C-1.51798623 31.37394485 -1.51798623 31.37394485 -7.90234375 31.28125 C-11.36571944 30.81688678 -13.39475173 29.24172526 -16 27 C-20.09011463 21.3870742 -19.89015583 15.70089526 -19 9 C-17.49722895 5.43986383 -15.48487251 2.91520444 -12.13671875 0.8515625 C-8.17106471 -0.72889926 -4.17997963 -0.65396455 0 0 Z " fill="#F3F8FA" transform="translate(643,553)"/>
<path d="M0 0 C3.3 0 6.6 0 10 0 C10.33 0.99 10.66 1.98 11 3 C11.350625 2.505 11.70125 2.01 12.0625 1.5 C14.99435344 -0.76982201 17.40895535 -0.3264586 21 0 C21.66 0.66 22.32 1.32 23 2 C22.625 5.125 22.625 5.125 22 8 C20.35 8.33 18.7 8.66 17 9 C16.67 7.35 16.34 5.7 16 4 C14.35 4.66 12.7 5.32 11 6 C11 12.27 11 18.54 11 25 C13.475 25.99 13.475 25.99 16 27 C16 27.99 16 28.98 16 30 C10.72 30 5.44 30 0 30 C0 29.01 0 28.02 0 27 C0.99 26.67 1.98 26.34 3 26 C3 18.74 3 11.48 3 4 C1.68 3.67 0.36 3.34 -1 3 C-0.67 2.01 -0.34 1.02 0 0 Z " fill="#F4F9FC" transform="translate(804,553)"/>
<path d="M0 0 C3.63 0 7.26 0 11 0 C11.33 8.25 11.66 16.5 12 25 C13.32 25.66 14.64 26.32 16 27 C16 27.99 16 28.98 16 30 C11.05 30 6.1 30 1 30 C1 29.01 1 28.02 1 27 C1.99 26.67 2.98 26.34 4 26 C4 18.74 4 11.48 4 4 C2.68 4 1.36 4 0 4 C0 2.68 0 1.36 0 0 Z " fill="#F2F8FA" transform="translate(537,553)"/>
<path d="M0 0 C3.63 0 7.26 0 11 0 C11.33 8.25 11.66 16.5 12 25 C13.32 25.66 14.64 26.32 16 27 C16 27.99 16 28.98 16 30 C11.05 30 6.1 30 1 30 C1 29.01 1 28.02 1 27 C1.99 26.67 2.98 26.34 4 26 C4 18.74 4 11.48 4 4 C2.68 4 1.36 4 0 4 C0 2.68 0 1.36 0 0 Z " fill="#F2F8FA" transform="translate(174,553)"/>
<path d="M0 0 C0.62029355 8.2188896 0.62029355 8.2188896 -1.6875 11.125 C-4.56245238 12.21281982 -6.10512213 11.93887931 -9 11 C-10 10 -10 10 -10.4375 7.75 C-10 5 -10 5 -7.25 2.1875 C-4 0 -4 0 0 0 Z " fill="#1A3064" transform="translate(730,568)"/>
<path d="M0 0 C2.24243223 2.86103423 3 4.34076304 3 8 C-0.96 8 -4.92 8 -9 8 C-8.6875 5.125 -8.6875 5.125 -8 2 C-4.78697711 -0.14201526 -3.73290719 -0.65325876 0 0 Z " fill="#142B61" transform="translate(366,556)"/>
<path d="M0 0 C2.24243223 2.86103423 3 4.34076304 3 8 C-0.96 8 -4.92 8 -9 8 C-8.6875 5.125 -8.6875 5.125 -8 2 C-4.78697711 -0.14201526 -3.73290719 -0.65325876 0 0 Z " fill="#F59E9C" transform="translate(946,472)"/>
<path d="M0 0 C2.5625 0.1875 2.5625 0.1875 4.5625 2.1875 C4.1875 5.3125 4.1875 5.3125 3.5625 8.1875 C1.1875 8.8125 1.1875 8.8125 -1.4375 9.1875 C-3.4375 7.1875 -3.4375 7.1875 -3.625 4.125 C-3.37828947 0.25986842 -3.37828947 0.25986842 0 0 Z " fill="#EBF1F5" transform="translate(544.4375,537.8125)"/>
<path d="M0 0 C2.5625 0.1875 2.5625 0.1875 4.5625 2.1875 C4.1875 5.3125 4.1875 5.3125 3.5625 8.1875 C1.1875 8.8125 1.1875 8.8125 -1.4375 9.1875 C-3.4375 7.1875 -3.4375 7.1875 -3.625 4.125 C-3.37828947 0.25986842 -3.37828947 0.25986842 0 0 Z " fill="#EBF1F5" transform="translate(181.4375,537.8125)"/>
</svg>
